<svg width="200" height="50" viewBox="0 0 200 50" fill="none" xmlns="http://www.w3.org/2000/svg">
  <!-- Kraken Icon -->
  <path d="M25 10C16.7157 10 10 16.7157 10 25C10 33.2843 16.7157 40 25 40C33.2843 40 40 33.2843 40 25C40 16.7157 33.2843 10 25 10Z" fill="url(#paint0_linear)"/>
  <path d="M25 15C19.4772 15 15 19.4772 15 25C15 30.5228 19.4772 35 25 35C30.5228 35 35 30.5228 35 25C35 19.4772 30.5228 15 25 15Z" stroke="white" stroke-width="2"/>
  <path d="M10 25H40" stroke="white" stroke-width="2" stroke-opacity="0.2"/>
  <path d="M25 10V40" stroke="white" stroke-width="2" stroke-opacity="0.2"/>
  
  <!-- Text: Kraken Labs -->
  <text x="50" y="32" font-family="Arial, sans-serif" font-weight="bold" font-size="20" fill="white" letter-spacing="1">KRAKEN</text>
  <text x="145" y="32" font-family="Arial, sans-serif" font-weight="normal" font-size="20" fill="#A0A0A0" letter-spacing="1">LABS</text>

  <!-- Gradients -->
  <defs>
    <linearGradient id="paint0_linear" x1="10" y1="10" x2="40" y2="40" gradientUnits="userSpaceOnUse">
      <stop stop-color="#7F00FF"/>
      <stop offset="1" stop-color="#E100FF"/>
    </linearGradient>
  </defs>
</svg>
